<?xml version="1.0" standalone="no"?><!DOCTYPE svg PUBLIC "-//W3C//DTD SVG 1.1//EN" "http://www.w3.org/Graphics/SVG/1.1/DTD/svg11.dtd"><svg class="icon" height="512" viewBox="0 0 1024 1024" version="1.1" xmlns="http://www.w3.org/2000/svg"><path d="M1003.73921 491.75034 883.607357 491.75034c-10.266889-189.280748-162.057032-341.070891-351.33778-351.338951L532.269577 20.259619c0-11.200668-9.060122-20.259619-20.258447-20.259619-11.199497 0-20.259619 9.060122-20.259619 20.259619l0 120.15177c-189.271375 10.26806-341.068548 162.058203-351.31669 351.338951L20.259619 491.75034C9.061294 491.75034 0 500.811634 0 512.008787c0 11.200668 9.061294 20.259619 20.259619 20.259619l120.172859 0c10.249314 189.262002 162.046487 341.052145 351.31669 351.320205l0 120.150599c0 11.219414 9.060122 20.26079 20.259619 20.26079 11.198325 0 20.258447-9.041376 20.258447-20.26079L532.267234 883.589783c189.280748-10.269232 341.070891-162.058203 351.33778-351.320205l120.131853 0c11.200668 0 20.26079-9.05895 20.26079-20.259619C1024 500.811634 1014.938706 491.75034 1003.73921 491.75034zM532.269577 843.068202 532.269577 715.041987c0-11.180751-9.060122-20.26079-20.258447-20.26079-11.199497 0-20.259619 9.08004-20.259619 20.26079l0 128.025043c-166.922761-10.148555-300.65007-143.87352-310.798625-310.798625l128.006297 0c11.199497 0 20.259619-9.05895 20.259619-20.259619 0-11.197153-9.060122-20.258447-20.259619-20.258447L180.951715 491.75034c10.148555-166.926276 143.875863-300.669987 310.798625-310.818542l0 128.026215c0 11.179579 9.060122 20.259619 20.259619 20.259619 11.198325 0 20.258447-9.08004 20.258447-20.259619L532.268406 180.931798c166.925105 10.148555 300.648898 143.892266 310.818542 310.818542l-128.046132 0c-11.200668 0-20.259619 9.060122-20.259619 20.258447 0 11.200668 9.05895 20.259619 20.259619 20.259619l128.046132 0C832.918475 699.194682 699.19351 832.919647 532.269577 843.068202z" /></svg>